<?xml version="1.0" encoding="UTF-8"?>
<svg version="1.1" xmlns="http://www.w3.org/2000/svg" width="73" height="78">
<path d="M0 0 C24.09 0 48.18 0 73 0 C73 25.74 73 51.48 73 78 C48.91 78 24.82 78 0 78 C0 52.26 0 26.52 0 0 Z " fill="#0A0A0B" transform="translate(0,0)"/>
<path d="M0 0 C1.98 0 3.96 0 6 0 C6.33 6.27 6.66 12.54 7 19 C7.94875 17.906875 8.8975 16.81375 9.875 15.6875 C10.51308594 14.96949219 11.15117187 14.25148438 11.80859375 13.51171875 C13.37876423 11.71204029 14.90838295 9.87666744 16.41015625 8.01953125 C22.84227864 0.33478534 22.84227864 0.33478534 26.41796875 -0.69921875 C28.625 -0.6875 28.625 -0.6875 32 0 C27.10995345 5.76774721 22.07515796 11.39476999 17 17 C18.28788962 20.53839717 19.80121691 23.36767703 22.0390625 26.390625 C22.61914062 27.18210937 23.19921875 27.97359375 23.796875 28.7890625 C24.70179687 30.00722656 24.70179687 30.00722656 25.625 31.25 C26.82752219 32.87873259 28.0281539 34.50886328 29.2265625 36.140625 C29.75846191 36.85766602 30.29036133 37.57470703 30.83837891 38.31347656 C32 40 32 40 32 41 C28.82421875 41.38671875 28.82421875 41.38671875 25 41 C22.86913606 38.9179112 21.43525441 37.23487252 19.8125 34.8125 C18.98591395 33.65217498 18.15909414 32.49201644 17.33203125 31.33203125 C16.94354004 30.77080566 16.55504883 30.20958008 16.15478516 29.63134766 C14.53382702 27.34144443 12.77732886 25.16956695 11 23 C7.98126522 25.39083795 7.07150347 26.59481364 6.390625 30.453125 C6.34421875 31.70609375 6.2978125 32.9590625 6.25 34.25 C6.19328125 35.51328125 6.1365625 36.7765625 6.078125 38.078125 C6.05234375 39.04234375 6.0265625 40.0065625 6 41 C4.02 41 2.04 41 0 41 C0 27.47 0 13.94 0 0 Z " fill="#E6E8EA" transform="translate(18,19)"/>
<path d="M0 0 C2.5 0.125 2.5 0.125 3.5 1.125 C3.6875 3.5625 3.6875 3.5625 3.5 6.125 C2.84 6.785 2.18 7.445 1.5 8.125 C-1.43453261 7.75818342 -2.36437246 7.26062754 -4.5 5.125 C-3.7519084 0.18759542 -3.7519084 0.18759542 0 0 Z " fill="#E0E2E4" transform="translate(59.5,52.875)"/>
</svg>
